<svg width="10" height="33" viewBox="0 0 10 33" fill="none" xmlns="http://www.w3.org/2000/svg">
<path d="M5 11.7097C7.76389 11.7097 10 13.852 10 16.5C10 19.148 7.76389 21.2903 5 21.2903C2.23611 21.2903 0 19.148 0 16.5C0 13.852 2.23611 11.7097 5 11.7097ZM0 4.79032C0 7.4383 2.23611 9.58064 5 9.58064C7.76389 9.58064 10 7.4383 10 4.79032C10 2.14234 7.76389 0 5 0C2.23611 0 0 2.14234 0 4.79032ZM0 28.2097C0 30.8577 2.23611 33 5 33C7.76389 33 10 30.8577 10 28.2097C10 25.5617 7.76389 23.4194 5 23.4194C2.23611 23.4194 0 25.5617 0 28.2097Z" fill="#333333"/>
</svg>
