<svg width="18" height="19" viewBox="0 0 18 19" fill="none" xmlns="http://www.w3.org/2000/svg">
<path d="M17.7552 16.4267L14.2499 12.7273C14.0917 12.5603 13.8772 12.4675 13.6522 12.4675H13.0791C14.0495 11.1577 14.6261 9.5102 14.6261 7.718C14.6261 3.45455 11.3528 0 7.31303 0C3.27329 0 0 3.45455 0 7.718C0 11.9814 3.27329 15.436 7.31303 15.436C9.01121 15.436 10.5723 14.8275 11.8134 13.8033V14.4082C11.8134 14.6456 11.9013 14.872 12.0595 15.039L15.5648 18.7384C15.8953 19.0872 16.4297 19.0872 16.7567 18.7384L17.7517 17.6883C18.0822 17.3395 18.0822 16.7755 17.7552 16.4267ZM7.31303 12.4675C4.82731 12.4675 2.81271 10.3451 2.81271 7.718C2.81271 5.09462 4.82379 2.96846 7.31303 2.96846C9.79876 2.96846 11.8134 5.09091 11.8134 7.718C11.8134 10.3414 9.80228 12.4675 7.31303 12.4675Z" fill="#A09F9F"/>
</svg>
