<svg width="14" height="14" viewBox="0 0 14 14" fill="none" xmlns="http://www.w3.org/2000/svg">
<g clip-path="url(#clip0)">
<path d="M7 8.75C7.9665 8.75 8.75 7.9665 8.75 7C8.75 6.0335 7.9665 5.25 7 5.25C6.0335 5.25 5.25 6.0335 5.25 7C5.25 7.9665 6.0335 8.75 7 8.75Z" stroke="#5CB6B1" stroke-width="2" stroke-linecap="round" stroke-linejoin="round"/>
<path d="M11.3168 8.74967C11.2392 8.92562 11.216 9.12079 11.2503 9.31002C11.2846 9.49925 11.3748 9.67386 11.5093 9.81134L11.5443 9.84634C11.6528 9.95469 11.7389 10.0834 11.7976 10.225C11.8563 10.3666 11.8865 10.5184 11.8865 10.6718C11.8865 10.8251 11.8563 10.9769 11.7976 11.1185C11.7389 11.2602 11.6528 11.3888 11.5443 11.4972C11.436 11.6056 11.3073 11.6917 11.1657 11.7504C11.024 11.8091 10.8722 11.8393 10.7189 11.8393C10.5656 11.8393 10.4138 11.8091 10.2721 11.7504C10.1305 11.6917 10.0018 11.6056 9.8935 11.4972L9.8585 11.4622C9.72102 11.3277 9.5464 11.2375 9.35717 11.2032C9.16794 11.1689 8.97277 11.192 8.79683 11.2697C8.6243 11.3436 8.47715 11.4664 8.37351 11.6229C8.26986 11.7794 8.21424 11.9628 8.2135 12.1505V12.2497C8.2135 12.5591 8.09058 12.8558 7.87179 13.0746C7.65299 13.2934 7.35625 13.4163 7.04683 13.4163C6.73741 13.4163 6.44066 13.2934 6.22187 13.0746C6.00308 12.8558 5.88016 12.5591 5.88016 12.2497V12.1972C5.87565 12.0041 5.81315 11.8168 5.70079 11.6597C5.58844 11.5027 5.43142 11.383 5.25016 11.3163C5.07422 11.2387 4.87905 11.2155 4.68982 11.2498C4.50059 11.2841 4.32598 11.3744 4.1885 11.5088L4.1535 11.5438C4.04514 11.6523 3.91647 11.7384 3.77484 11.7971C3.63321 11.8558 3.4814 11.886 3.32808 11.886C3.17476 11.886 3.02295 11.8558 2.88132 11.7971C2.73968 11.7384 2.61101 11.6523 2.50266 11.5438C2.39419 11.4355 2.30814 11.3068 2.24943 11.1652C2.19071 11.0236 2.16049 10.8717 2.16049 10.7184C2.16049 10.5651 2.19071 10.4133 2.24943 10.2717C2.30814 10.13 2.39419 10.0014 2.50266 9.89301L2.53766 9.85801C2.67214 9.72053 2.76235 9.54591 2.79667 9.35668C2.83098 9.16745 2.80781 8.97228 2.73016 8.79634C2.65622 8.62381 2.53344 8.47666 2.37693 8.37302C2.22043 8.26938 2.03704 8.21376 1.84933 8.21301H1.75016C1.44074 8.21301 1.144 8.09009 0.925205 7.8713C0.706412 7.65251 0.583496 7.35576 0.583496 7.04634C0.583496 6.73692 0.706412 6.44018 0.925205 6.22138C1.144 6.00259 1.44074 5.87967 1.75016 5.87967H1.80266C1.99574 5.87516 2.183 5.81266 2.34009 5.70031C2.49718 5.58795 2.61683 5.43094 2.6835 5.24967C2.76115 5.07373 2.78431 4.87856 2.75 4.68933C2.71569 4.5001 2.62548 4.32549 2.491 4.18801L2.456 4.15301C2.34752 4.04466 2.26147 3.91599 2.20276 3.77435C2.14405 3.63272 2.11383 3.48091 2.11383 3.32759C2.11383 3.17427 2.14405 3.02246 2.20276 2.88083C2.26147 2.7392 2.34752 2.61053 2.456 2.50217C2.56435 2.3937 2.69302 2.30765 2.83465 2.24894C2.97628 2.19023 3.12809 2.16001 3.28141 2.16001C3.43473 2.16001 3.58655 2.19023 3.72818 2.24894C3.86981 2.30765 3.99848 2.3937 4.10683 2.50217L4.14183 2.53717C4.27931 2.67165 4.45392 2.76187 4.64315 2.79618C4.83238 2.83049 5.02755 2.80732 5.2035 2.72967H5.25016C5.42269 2.65573 5.56984 2.53295 5.67348 2.37645C5.77713 2.21994 5.83275 2.03655 5.8335 1.84884V1.74967C5.8335 1.44026 5.95641 1.14351 6.1752 0.924717C6.394 0.705924 6.69074 0.583008 7.00016 0.583008C7.30958 0.583008 7.60633 0.705924 7.82512 0.924717C8.04391 1.14351 8.16683 1.44026 8.16683 1.74967V1.80217C8.16758 1.98988 8.2232 2.17328 8.32684 2.32978C8.43049 2.48628 8.57763 2.60906 8.75016 2.68301C8.92611 2.76066 9.12128 2.78382 9.31051 2.74951C9.49974 2.7152 9.67435 2.62499 9.81183 2.49051L9.84683 2.45551C9.95518 2.34704 10.0839 2.26098 10.2255 2.20227C10.3671 2.14356 10.5189 2.11334 10.6722 2.11334C10.8256 2.11334 10.9774 2.14356 11.119 2.20227C11.2606 2.26098 11.3893 2.34704 11.4977 2.45551C11.6061 2.56386 11.6922 2.69253 11.7509 2.83416C11.8096 2.97579 11.8398 3.12761 11.8398 3.28092C11.8398 3.43424 11.8096 3.58606 11.7509 3.72769C11.6922 3.86932 11.6061 3.99799 11.4977 4.10634L11.4627 4.14134C11.3282 4.27882 11.238 4.45343 11.2037 4.64266C11.1693 4.83189 11.1925 5.02707 11.2702 5.20301V5.24967C11.3441 5.42221 11.4669 5.56935 11.6234 5.673C11.7799 5.77664 11.9633 5.83226 12.151 5.83301H12.2502C12.5596 5.83301 12.8563 5.95592 13.0751 6.17472C13.2939 6.39351 13.4168 6.69026 13.4168 6.99967C13.4168 7.30909 13.2939 7.60584 13.0751 7.82463C12.8563 8.04342 12.5596 8.16634 12.2502 8.16634H12.1977C12.01 8.16709 11.8266 8.22271 11.6701 8.32635C11.5136 8.43 11.3908 8.57714 11.3168 8.74967V8.74967Z" stroke="#5CB6B1" stroke-width="2" stroke-linecap="round" stroke-linejoin="round"/>
</g>
<defs>
<clipPath id="clip0">
<rect width="14" height="14" fill="white"/>
</clipPath>
</defs>
</svg>
